<svg width="249" height="255" viewBox="0 0 249 255" fill="none" xmlns="http://www.w3.org/2000/svg">
<path d="M176.429 134.582C176.429 134.582 168.077 117.411 165.845 103.407C164.939 98.3047 156.026 94.939 149.632 101.021L94.9591 97.586L71.7861 67.1296C68.3854 61.9647 61.1727 61.1814 55.8959 65.6126C50.7556 69.7458 49.1033 77.2811 52.802 82.5826L56.3393 87.4497C52.4416 84.9413 47.0165 84.9777 43.0185 88.1924C37.8783 92.3256 36.226 99.8609 39.9246 105.162L47.7812 116.337C44.3805 111.172 37.1678 110.389 31.8909 114.82C26.7507 118.953 25.0984 126.488 28.797 131.79C28.797 131.79 67.4216 189.883 81.385 208.184C92.295 222.922 119.418 240.046 147.7 226.332C157.21 221.318 176.429 134.582 176.429 134.582Z" fill="#D99B57"/>
<path d="M198.774 144.827C192.246 133.901 189.653 122.256 190.897 106.962C191.158 101.673 185.014 97.7739 177.726 103.446C167.147 111.576 168.548 122.675 169.752 127.914L170.422 130.384C170.422 130.384 169.813 134.071 169.527 138.627C162.302 133.152 151.315 133.522 141.234 138.995C130.718 144.63 108.396 152.423 97.8797 158.057C85.0545 164.796 80.3096 180.649 86.242 191.301C86.242 191.301 117.307 247.01 167.552 219.209C207.009 197.639 205.302 155.753 198.774 144.827Z" fill="#FFDD67"/>
<path d="M177.246 150.099C180.374 155.86 178.424 163.259 172.39 166.982C166.654 170.842 159.118 169.19 155.991 163.429L106.26 76.0857C103.132 70.3249 105.083 62.9262 111.117 59.2028C116.853 55.3428 124.388 56.9951 127.516 62.7559L177.246 150.099Z" fill="#FFDD67"/>
<path d="M141.546 126.519L109.886 70.537C108.024 67.52 107.602 63.7211 110.545 59.662C104.536 64.1179 103.889 71.0326 106.396 75.7878L138.057 131.77C141.184 137.53 144.673 132.28 141.546 126.519Z" fill="#EBA352"/>
<path d="M148.333 149.462C151.46 155.223 149.51 162.621 143.476 166.345C137.74 170.205 130.205 168.552 127.077 162.792L77.4829 75.1501C74.3554 69.3893 76.3056 61.9906 82.3397 58.2672C88.0757 54.4073 95.6111 56.0596 98.7386 61.8204L148.333 149.462Z" fill="#FFDD67"/>
<path d="M119.186 137.539L80.9723 69.8994C79.1106 66.8824 78.9624 62.4877 81.632 59.0244C75.6227 63.4803 74.4049 70.8543 77.2098 75.746L115.994 142.927C118.824 148.551 122.45 143.002 119.186 137.539Z" fill="#EBA352"/>
<path d="M132.638 171.11C135.765 176.871 133.815 184.27 127.781 187.993C122.045 191.853 114.51 190.201 111.382 184.44L61.7879 96.7983C58.6603 91.0375 60.6106 83.6388 66.6446 79.9154C72.3807 76.0554 79.916 77.7078 83.0435 83.4686L132.638 171.11Z" fill="#FFDD67"/>
<path d="M99.1222 151.415L65.1408 91.8454C63.2791 88.8284 63.4041 83.8378 66.5083 80.2133C60.0397 84.098 58.1142 92.2292 60.9191 97.1209L95.6329 156.666C98.7604 162.427 102.25 157.176 99.1222 151.415Z" fill="#EBA352"/>
<path d="M118.258 196.967C121.385 202.728 85.7825 190.73 82.655 184.969L47.5691 123.09C44.4416 117.329 46.3918 109.93 52.4258 106.207C58.1619 102.347 65.6972 103.999 68.8248 109.76L118.258 196.967Z" fill="#FFDD67"/>
<path d="M193.837 194.124C193.837 194.124 176.751 218.019 148.656 224.247C123.764 229.779 100.765 204.45 91.1581 189.229C81.3657 172.84 76.4012 164.795 53.8632 122.731C49.6312 114.661 49.3463 110.564 52.699 105.611C45.1753 108.652 44.0317 118.223 46.8366 123.115L49.3188 127.137C49.3188 127.137 76.7966 176.514 86.4277 192.468C95.1403 207.28 121.79 236.446 150.294 229.324C182.163 221.943 193.837 194.124 193.837 194.124ZM174.094 143.606C171.004 134.618 174.804 125.543 174.804 125.543L174.134 123.073C173.117 119.001 172.113 110.968 177.018 104.203C166.576 112.035 168.411 122.973 169.453 127.777L170.123 130.248C170.123 130.248 168.596 132.792 169.129 135.561L174.094 143.606Z" fill="#EBA352"/>
<path d="M182.092 45.9554L174.364 86.4005L207.378 60.7947L182.092 45.9554ZM221.267 76.8985L194.063 100.842L229.034 107.141L221.267 76.8985ZM157.401 40.0422L150.716 76.639L131.367 46.4936L157.401 40.0422Z" fill="#42ADE2"/>
</svg>
