<svg width="152" height="56" viewBox="0 0 152 56" fill="none" xmlns="http://www.w3.org/2000/svg">
<path d="M99 0H152V53H99V0Z" fill="white" fill-opacity="0.01"/>
<path d="M125.5 48.5833C134.592 48.5833 142.062 41.3778 142.062 32.1291C142.062 29.8586 141.947 27.4247 140.688 23.642C139.43 19.8593 139.176 19.371 137.846 17.035C137.277 21.8022 134.235 23.789 133.462 24.3829C133.462 23.7651 131.622 16.9334 128.832 12.8458C126.093 8.83332 122.368 6.2009 120.184 4.41666C120.184 7.80619 119.23 12.8458 117.865 15.4135C116.5 17.9812 116.243 18.0748 114.538 19.9856C112.833 21.8965 112.05 22.4867 110.624 24.8052C109.198 27.1238 108.938 30.212 108.938 32.4825C108.938 41.7311 116.408 48.5833 125.5 48.5833Z" fill="#FDD67C" stroke="#FDD67C" stroke-width="2" stroke-linejoin="round"/>
<path d="M3.87 26.98L9.42 27.01C12.32 27.01 14.87 28.06 17.07 30.16C19.27 32.24 20.37 34.81 20.37 37.87C20.37 40.91 19.29 43.52 17.13 45.7C14.99 47.88 12.39 48.97 9.33 48.97H3.84C2.62 48.97 1.86 48.72 1.56 48.22C1.32 47.8 1.2 47.16 1.2 46.3V29.62C1.2 29.14 1.21 28.79 1.23 28.57C1.27 28.35 1.37 28.09 1.53 27.79C1.81 27.25 2.59 26.98 3.87 26.98ZM9.42 43.66C10.86 43.66 12.16 43.13 13.32 42.07C14.48 40.99 15.06 39.64 15.06 38.02C15.06 36.4 14.49 35.05 13.35 33.97C12.23 32.87 10.91 32.32 9.39 32.32H6.51V43.66H9.42ZM21.873 41.11C21.873 38.71 22.713 36.73 24.393 35.17C26.073 33.61 27.993 32.83 30.153 32.83C32.313 32.83 34.223 33.61 35.883 35.17C37.543 36.71 38.373 38.68 38.373 41.08C38.373 42.74 37.943 44.22 37.083 45.52C36.223 46.8 35.173 47.75 33.933 48.37C32.713 48.97 31.443 49.27 30.123 49.27C28.803 49.27 27.523 48.95 26.283 48.31C25.043 47.65 23.993 46.69 23.133 45.43C22.293 44.15 21.873 42.71 21.873 41.11ZM28.143 43.27C28.783 43.75 29.433 43.99 30.093 43.99C30.753 43.99 31.413 43.74 32.073 43.24C32.733 42.74 33.063 42 33.063 41.02C33.063 40.04 32.753 39.31 32.133 38.83C31.513 38.35 30.843 38.11 30.123 38.11C29.403 38.11 28.733 38.36 28.113 38.86C27.493 39.36 27.183 40.1 27.183 41.08C27.183 42.04 27.503 42.77 28.143 43.27ZM63.5592 37.21C64.7392 38.61 65.3292 40.18 65.3292 41.92C65.2892 43.92 64.5992 45.6 63.2592 46.96C61.9392 48.3 60.3292 48.97 58.4292 48.97H50.5392C49.1392 48.97 48.3192 48.59 48.0792 47.83C47.9592 47.49 47.8992 46.97 47.8992 46.27V29.62C47.8992 29.14 47.9092 28.79 47.9292 28.57C47.9692 28.35 48.0692 28.09 48.2292 27.79C48.5092 27.25 49.2892 26.98 50.5692 26.98H58.1292C59.9692 26.98 61.5092 27.62 62.7492 28.9C64.0492 30.2 64.6992 31.76 64.6992 33.58C64.6992 34.9 64.3192 36.11 63.5592 37.21ZM60.0192 41.62C60.0192 41.14 59.9592 40.76 59.8392 40.48C59.7392 40.2 59.5592 40 59.2992 39.88C58.8992 39.72 58.3392 39.64 57.6192 39.64C56.8992 39.64 56.3592 39.5 55.9992 39.22C55.6392 38.94 55.4592 38.37 55.4592 37.51C55.4592 36.63 55.6392 36.05 55.9992 35.77C56.3792 35.49 56.9992 35.35 57.8592 35.35C58.6592 35.35 59.1392 35.14 59.2992 34.72C59.3592 34.5 59.3892 34.14 59.3892 33.64C59.3892 33.14 59.2192 32.79 58.8792 32.59C58.5592 32.39 58.0692 32.29 57.4092 32.29H53.2092V43.66H58.1292C59.3892 43.66 60.0192 42.98 60.0192 41.62ZM77.5538 34.87C77.6738 33.75 78.4638 33.19 79.9238 33.19C80.7038 33.19 81.2838 33.25 81.6638 33.37C82.0438 33.49 82.3038 33.7 82.4438 34C82.6038 34.3 82.6938 34.57 82.7138 34.81C82.7538 35.03 82.7738 35.37 82.7738 35.83V46.33C82.7738 46.79 82.7538 47.14 82.7138 47.38C82.6938 47.6 82.6138 47.86 82.4738 48.16C82.1938 48.68 81.5038 48.94 80.4038 48.94C79.3238 48.94 78.5938 48.81 78.2138 48.55C77.8538 48.27 77.6438 47.87 77.5838 47.35C76.8438 48.41 75.6038 48.94 73.8638 48.94C72.1438 48.94 70.5438 48.15 69.0638 46.57C67.5838 44.99 66.8438 43.16 66.8438 41.08C66.8438 38.98 67.5838 37.15 69.0638 35.59C70.5638 34.01 72.2038 33.22 73.9838 33.22C74.6638 33.22 75.2838 33.34 75.8438 33.58C76.4038 33.82 76.7938 34.05 77.0138 34.27C77.2338 34.47 77.4138 34.67 77.5538 34.87ZM72.0938 41.11C72.0938 41.77 72.3538 42.37 72.8738 42.91C73.3938 43.43 74.0238 43.69 74.7638 43.69C75.5038 43.69 76.1138 43.42 76.5938 42.88C77.0938 42.34 77.3438 41.75 77.3438 41.11C77.3438 40.45 77.1038 39.84 76.6238 39.28C76.1638 38.72 75.5338 38.44 74.7338 38.44C73.9538 38.44 73.3138 38.72 72.8138 39.28C72.3338 39.84 72.0938 40.45 72.0938 41.11ZM104.695 38.5L102.745 38.38V42.52C102.745 43.06 102.825 43.45 102.985 43.69C103.165 43.93 103.485 44.05 103.945 44.05C104.425 44.05 104.785 44.07 105.025 44.11C105.285 44.13 105.545 44.22 105.805 44.38C106.285 44.64 106.525 45.31 106.525 46.39C106.525 47.65 106.245 48.42 105.685 48.7C105.385 48.84 105.115 48.93 104.875 48.97C104.655 48.99 104.325 49 103.885 49C101.885 49 100.325 48.48 99.2048 47.44C98.0848 46.4 97.5248 44.86 97.5248 42.82V38.38C96.5648 38.46 95.7648 38.5 95.1248 38.5L92.3948 38.38V42.52C92.3948 43.06 92.4748 43.45 92.6348 43.69C92.8148 43.93 93.1348 44.05 93.5948 44.05C94.0748 44.05 94.4348 44.07 94.6748 44.11C94.9348 44.13 95.2048 44.22 95.4848 44.38C95.9448 44.64 96.1748 45.31 96.1748 46.39C96.1748 47.65 95.8948 48.42 95.3348 48.7C95.0348 48.84 94.7648 48.93 94.5248 48.97C94.3048 48.99 93.9748 49 93.5348 49C91.5348 49 89.9748 48.48 88.8548 47.44C87.7348 46.4 87.1748 44.86 87.1748 42.82V38.38C86.7748 38.44 86.3548 38.47 85.9148 38.47C85.4948 38.47 85.1348 38.3 84.8348 37.96C84.5548 37.62 84.4148 37.04 84.4148 36.22C84.4148 35.4 84.4648 34.81 84.5648 34.45C84.6648 34.07 84.8048 33.8 84.9848 33.64C85.3048 33.38 85.7048 33.25 86.1848 33.25L87.1748 33.37V30.28C87.1748 29.82 87.1848 29.48 87.2048 29.26C87.2448 29.04 87.3448 28.8 87.5048 28.54C87.7648 28.04 88.5348 27.79 89.8148 27.79C91.1748 27.79 91.9848 28.16 92.2448 28.9C92.3448 29.22 92.3948 29.73 92.3948 30.43V33.28C93.3348 33.26 94.2248 33.25 95.0648 33.25L97.5248 33.28V30.28C97.5248 29.82 97.5348 29.48 97.5548 29.26C97.5948 29.04 97.6848 28.8 97.8248 28.54C98.1048 28.04 98.8848 27.79 100.165 27.79C101.525 27.79 102.325 28.16 102.565 28.9C102.685 29.22 102.745 29.73 102.745 30.43V33.37C103.625 33.29 104.285 33.25 104.725 33.25C105.185 33.25 105.525 33.27 105.745 33.31C105.985 33.33 106.245 33.42 106.525 33.58C107.065 33.84 107.335 34.61 107.335 35.89C107.335 37.15 107.065 37.92 106.525 38.2C106.225 38.34 105.955 38.43 105.715 38.47C105.495 38.49 105.155 38.5 104.695 38.5ZM108.983 28.39C108.983 27.93 108.993 27.59 109.013 27.37C109.053 27.13 109.143 26.86 109.283 26.56C109.563 26.02 110.343 25.75 111.623 25.75C112.843 25.75 113.603 26.02 113.903 26.56C114.063 26.86 114.153 27.13 114.173 27.37C114.213 27.61 114.233 27.96 114.233 28.42V42.31C114.233 43.03 114.293 43.49 114.413 43.69C114.533 43.87 114.793 43.96 115.193 43.96C115.613 43.96 115.893 43.98 116.033 44.02C116.173 44.04 116.343 44.12 116.543 44.26C116.943 44.52 117.143 45.23 117.143 46.39C117.143 47.65 116.943 48.42 116.543 48.7C116.023 49.06 114.783 49.12 112.823 48.88C111.283 48.68 110.283 48.17 109.823 47.35C109.263 46.37 108.983 44.81 108.983 42.67V28.39ZM133.745 39.22C133.745 40.44 133.435 41.35 132.815 41.95C132.215 42.53 131.545 42.82 130.805 42.82H123.695C123.695 43.38 124.025 43.85 124.685 44.23C125.345 44.61 126.005 44.8 126.665 44.8C127.825 44.8 128.735 44.68 129.395 44.44L129.725 44.32C130.205 44.1 130.605 43.99 130.925 43.99C131.565 43.99 132.115 44.44 132.575 45.34C132.835 45.88 132.965 46.34 132.965 46.72C132.965 48.5 130.835 49.39 126.575 49.39C125.095 49.39 123.775 49.14 122.615 48.64C121.475 48.12 120.585 47.44 119.945 46.6C118.685 44.98 118.055 43.17 118.055 41.17C118.055 38.65 118.865 36.64 120.485 35.14C122.125 33.62 124.165 32.86 126.605 32.86C129.385 32.86 131.425 33.84 132.725 35.8C133.405 36.84 133.745 37.98 133.745 39.22ZM127.415 40.09C128.175 40.09 128.555 39.77 128.555 39.13C128.555 38.67 128.375 38.3 128.015 38.02C127.675 37.74 127.175 37.6 126.515 37.6C125.875 37.6 125.235 37.87 124.595 38.41C123.955 38.93 123.635 39.49 123.635 40.09H127.415ZM136.002 44.44C136.202 44.04 136.502 43.77 136.902 43.63C137.322 43.49 137.962 43.42 138.822 43.42C139.702 43.42 140.332 43.61 140.712 43.99C141.112 44.37 141.312 44.97 141.312 45.79V46.27C141.312 46.75 141.292 47.11 141.252 47.35C141.232 47.57 141.142 47.84 140.982 48.16C140.662 48.74 139.892 49.03 138.672 49.03C137.472 49.03 136.672 48.84 136.272 48.46C135.892 48.06 135.702 47.3 135.702 46.18C135.702 45.4 135.802 44.82 136.002 44.44ZM140.022 40.93C139.642 41.03 139.132 41.08 138.492 41.08C137.852 41.08 137.342 41.03 136.962 40.93C136.582 40.83 136.312 40.65 136.152 40.39C136.012 40.13 135.922 39.9 135.882 39.7C135.862 39.5 135.852 39.19 135.852 38.77V29.26C135.852 28.84 135.862 28.53 135.882 28.33C135.922 28.11 136.022 27.87 136.182 27.61C136.342 27.35 136.612 27.17 136.992 27.07C137.372 26.95 137.882 26.89 138.522 26.89C139.162 26.89 139.672 26.95 140.052 27.07C140.432 27.17 140.692 27.36 140.832 27.64C140.992 27.9 141.082 28.14 141.102 28.36C141.142 28.56 141.162 28.87 141.162 29.29V38.8C141.162 39.22 141.142 39.53 141.102 39.73C141.082 39.93 140.992 40.16 140.832 40.42C140.672 40.66 140.402 40.83 140.022 40.93Z" fill="#FF5C00"/>
<path d="M3.87 26.98L9.42 27.01C12.32 27.01 14.87 28.06 17.07 30.16C19.27 32.24 20.37 34.81 20.37 37.87C20.37 40.91 19.29 43.52 17.13 45.7C14.99 47.88 12.39 48.97 9.33 48.97H3.84C2.62 48.97 1.86 48.72 1.56 48.22C1.32 47.8 1.2 47.16 1.2 46.3V29.62C1.2 29.14 1.21 28.79 1.23 28.57C1.27 28.35 1.37 28.09 1.53 27.79C1.81 27.25 2.59 26.98 3.87 26.98ZM9.42 43.66C10.86 43.66 12.16 43.13 13.32 42.07C14.48 40.99 15.06 39.64 15.06 38.02C15.06 36.4 14.49 35.05 13.35 33.97C12.23 32.87 10.91 32.32 9.39 32.32H6.51V43.66H9.42ZM21.873 41.11C21.873 38.71 22.713 36.73 24.393 35.17C26.073 33.61 27.993 32.83 30.153 32.83C32.313 32.83 34.223 33.61 35.883 35.17C37.543 36.71 38.373 38.68 38.373 41.08C38.373 42.74 37.943 44.22 37.083 45.52C36.223 46.8 35.173 47.75 33.933 48.37C32.713 48.97 31.443 49.27 30.123 49.27C28.803 49.27 27.523 48.95 26.283 48.31C25.043 47.65 23.993 46.69 23.133 45.43C22.293 44.15 21.873 42.71 21.873 41.11ZM28.143 43.27C28.783 43.75 29.433 43.99 30.093 43.99C30.753 43.99 31.413 43.74 32.073 43.24C32.733 42.74 33.063 42 33.063 41.02C33.063 40.04 32.753 39.31 32.133 38.83C31.513 38.35 30.843 38.11 30.123 38.11C29.403 38.11 28.733 38.36 28.113 38.86C27.493 39.36 27.183 40.1 27.183 41.08C27.183 42.04 27.503 42.77 28.143 43.27ZM63.5592 37.21C64.7392 38.61 65.3292 40.18 65.3292 41.92C65.2892 43.92 64.5992 45.6 63.2592 46.96C61.9392 48.3 60.3292 48.97 58.4292 48.97H50.5392C49.1392 48.97 48.3192 48.59 48.0792 47.83C47.9592 47.49 47.8992 46.97 47.8992 46.27V29.62C47.8992 29.14 47.9092 28.79 47.9292 28.57C47.9692 28.35 48.0692 28.09 48.2292 27.79C48.5092 27.25 49.2892 26.98 50.5692 26.98H58.1292C59.9692 26.98 61.5092 27.62 62.7492 28.9C64.0492 30.2 64.6992 31.76 64.6992 33.58C64.6992 34.9 64.3192 36.11 63.5592 37.21ZM60.0192 41.62C60.0192 41.14 59.9592 40.76 59.8392 40.48C59.7392 40.2 59.5592 40 59.2992 39.88C58.8992 39.72 58.3392 39.64 57.6192 39.64C56.8992 39.64 56.3592 39.5 55.9992 39.22C55.6392 38.94 55.4592 38.37 55.4592 37.51C55.4592 36.63 55.6392 36.05 55.9992 35.77C56.3792 35.49 56.9992 35.35 57.8592 35.35C58.6592 35.35 59.1392 35.14 59.2992 34.72C59.3592 34.5 59.3892 34.14 59.3892 33.64C59.3892 33.14 59.2192 32.79 58.8792 32.59C58.5592 32.39 58.0692 32.29 57.4092 32.29H53.2092V43.66H58.1292C59.3892 43.66 60.0192 42.98 60.0192 41.62ZM77.5538 34.87C77.6738 33.75 78.4638 33.19 79.9238 33.19C80.7038 33.19 81.2838 33.25 81.6638 33.37C82.0438 33.49 82.3038 33.7 82.4438 34C82.6038 34.3 82.6938 34.57 82.7138 34.81C82.7538 35.03 82.7738 35.37 82.7738 35.83V46.33C82.7738 46.79 82.7538 47.14 82.7138 47.38C82.6938 47.6 82.6138 47.86 82.4738 48.16C82.1938 48.68 81.5038 48.94 80.4038 48.94C79.3238 48.94 78.5938 48.81 78.2138 48.55C77.8538 48.27 77.6438 47.87 77.5838 47.35C76.8438 48.41 75.6038 48.94 73.8638 48.94C72.1438 48.94 70.5438 48.15 69.0638 46.57C67.5838 44.99 66.8438 43.16 66.8438 41.08C66.8438 38.98 67.5838 37.15 69.0638 35.59C70.5638 34.01 72.2038 33.22 73.9838 33.22C74.6638 33.22 75.2838 33.34 75.8438 33.58C76.4038 33.82 76.7938 34.05 77.0138 34.27C77.2338 34.47 77.4138 34.67 77.5538 34.87ZM72.0938 41.11C72.0938 41.77 72.3538 42.37 72.8738 42.91C73.3938 43.43 74.0238 43.69 74.7638 43.69C75.5038 43.69 76.1138 43.42 76.5938 42.88C77.0938 42.34 77.3438 41.75 77.3438 41.11C77.3438 40.45 77.1038 39.84 76.6238 39.28C76.1638 38.72 75.5338 38.44 74.7338 38.44C73.9538 38.44 73.3138 38.72 72.8138 39.28C72.3338 39.84 72.0938 40.45 72.0938 41.11ZM104.695 38.5L102.745 38.38V42.52C102.745 43.06 102.825 43.45 102.985 43.69C103.165 43.93 103.485 44.05 103.945 44.05C104.425 44.05 104.785 44.07 105.025 44.11C105.285 44.13 105.545 44.22 105.805 44.38C106.285 44.64 106.525 45.31 106.525 46.39C106.525 47.65 106.245 48.42 105.685 48.7C105.385 48.84 105.115 48.93 104.875 48.97C104.655 48.99 104.325 49 103.885 49C101.885 49 100.325 48.48 99.2048 47.44C98.0848 46.4 97.5248 44.86 97.5248 42.82V38.38C96.5648 38.46 95.7648 38.5 95.1248 38.5L92.3948 38.38V42.52C92.3948 43.06 92.4748 43.45 92.6348 43.69C92.8148 43.93 93.1348 44.05 93.5948 44.05C94.0748 44.05 94.4348 44.07 94.6748 44.11C94.9348 44.13 95.2048 44.22 95.4848 44.38C95.9448 44.64 96.1748 45.31 96.1748 46.39C96.1748 47.65 95.8948 48.42 95.3348 48.7C95.0348 48.84 94.7648 48.93 94.5248 48.97C94.3048 48.99 93.9748 49 93.5348 49C91.5348 49 89.9748 48.48 88.8548 47.44C87.7348 46.4 87.1748 44.86 87.1748 42.82V38.38C86.7748 38.44 86.3548 38.47 85.9148 38.47C85.4948 38.47 85.1348 38.3 84.8348 37.96C84.5548 37.62 84.4148 37.04 84.4148 36.22C84.4148 35.4 84.4648 34.81 84.5648 34.45C84.6648 34.07 84.8048 33.8 84.9848 33.64C85.3048 33.38 85.7048 33.25 86.1848 33.25L87.1748 33.37V30.28C87.1748 29.82 87.1848 29.48 87.2048 29.26C87.2448 29.04 87.3448 28.8 87.5048 28.54C87.7648 28.04 88.5348 27.79 89.8148 27.79C91.1748 27.79 91.9848 28.16 92.2448 28.9C92.3448 29.22 92.3948 29.73 92.3948 30.43V33.28C93.3348 33.26 94.2248 33.25 95.0648 33.25L97.5248 33.28V30.28C97.5248 29.82 97.5348 29.48 97.5548 29.26C97.5948 29.04 97.6848 28.8 97.8248 28.54C98.1048 28.04 98.8848 27.79 100.165 27.79C101.525 27.79 102.325 28.16 102.565 28.9C102.685 29.22 102.745 29.73 102.745 30.43V33.37C103.625 33.29 104.285 33.25 104.725 33.25C105.185 33.25 105.525 33.27 105.745 33.31C105.985 33.33 106.245 33.42 106.525 33.58C107.065 33.84 107.335 34.61 107.335 35.89C107.335 37.15 107.065 37.92 106.525 38.2C106.225 38.34 105.955 38.43 105.715 38.47C105.495 38.49 105.155 38.5 104.695 38.5ZM108.983 28.39C108.983 27.93 108.993 27.59 109.013 27.37C109.053 27.13 109.143 26.86 109.283 26.56C109.563 26.02 110.343 25.75 111.623 25.75C112.843 25.75 113.603 26.02 113.903 26.56C114.063 26.86 114.153 27.13 114.173 27.37C114.213 27.61 114.233 27.96 114.233 28.42V42.31C114.233 43.03 114.293 43.49 114.413 43.69C114.533 43.87 114.793 43.96 115.193 43.96C115.613 43.96 115.893 43.98 116.033 44.02C116.173 44.04 116.343 44.12 116.543 44.26C116.943 44.52 117.143 45.23 117.143 46.39C117.143 47.65 116.943 48.42 116.543 48.7C116.023 49.06 114.783 49.12 112.823 48.88C111.283 48.68 110.283 48.17 109.823 47.35C109.263 46.37 108.983 44.81 108.983 42.67V28.39ZM133.745 39.22C133.745 40.44 133.435 41.35 132.815 41.95C132.215 42.53 131.545 42.82 130.805 42.82H123.695C123.695 43.38 124.025 43.85 124.685 44.23C125.345 44.61 126.005 44.8 126.665 44.8C127.825 44.8 128.735 44.68 129.395 44.44L129.725 44.32C130.205 44.1 130.605 43.99 130.925 43.99C131.565 43.99 132.115 44.44 132.575 45.34C132.835 45.88 132.965 46.34 132.965 46.72C132.965 48.5 130.835 49.39 126.575 49.39C125.095 49.39 123.775 49.14 122.615 48.64C121.475 48.12 120.585 47.44 119.945 46.6C118.685 44.98 118.055 43.17 118.055 41.17C118.055 38.65 118.865 36.64 120.485 35.14C122.125 33.62 124.165 32.86 126.605 32.86C129.385 32.86 131.425 33.84 132.725 35.8C133.405 36.84 133.745 37.98 133.745 39.22ZM127.415 40.09C128.175 40.09 128.555 39.77 128.555 39.13C128.555 38.67 128.375 38.3 128.015 38.02C127.675 37.74 127.175 37.6 126.515 37.6C125.875 37.6 125.235 37.87 124.595 38.41C123.955 38.93 123.635 39.49 123.635 40.09H127.415ZM136.002 44.44C136.202 44.04 136.502 43.77 136.902 43.63C137.322 43.49 137.962 43.42 138.822 43.42C139.702 43.42 140.332 43.61 140.712 43.99C141.112 44.37 141.312 44.97 141.312 45.79V46.27C141.312 46.75 141.292 47.11 141.252 47.35C141.232 47.57 141.142 47.84 140.982 48.16C140.662 48.74 139.892 49.03 138.672 49.03C137.472 49.03 136.672 48.84 136.272 48.46C135.892 48.06 135.702 47.3 135.702 46.18C135.702 45.4 135.802 44.82 136.002 44.44ZM140.022 40.93C139.642 41.03 139.132 41.08 138.492 41.08C137.852 41.08 137.342 41.03 136.962 40.93C136.582 40.83 136.312 40.65 136.152 40.39C136.012 40.13 135.922 39.9 135.882 39.7C135.862 39.5 135.852 39.19 135.852 38.77V29.26C135.852 28.84 135.862 28.53 135.882 28.33C135.922 28.11 136.022 27.87 136.182 27.61C136.342 27.35 136.612 27.17 136.992 27.07C137.372 26.95 137.882 26.89 138.522 26.89C139.162 26.89 139.672 26.95 140.052 27.07C140.432 27.17 140.692 27.36 140.832 27.64C140.992 27.9 141.082 28.14 141.102 28.36C141.142 28.56 141.162 28.87 141.162 29.29V38.8C141.162 39.22 141.142 39.53 141.102 39.73C141.082 39.93 140.992 40.16 140.832 40.42C140.672 40.66 140.402 40.83 140.022 40.93Z" fill="#FF5C00"/>
</svg>
