<svg width="52" height="52" viewBox="0 0 52 52" fill="none" xmlns="http://www.w3.org/2000/svg">
<path d="M25.7618 0C40.0166 0 51.5235 11.6133 51.5235 26C51.5235 40.3867 40.0166 52.0001 25.7618 52.0001C11.5069 52.0001 0 40.3867 0 26C0 11.6133 11.5069 0 25.7618 0Z" fill="#FFDD67"/>
<path d="M29.025 16.0334C27.1358 16.9867 24.302 16.9867 22.4128 16.0334C20.4377 14.9934 17.9474 14.3 14.9419 14.04C12.0222 13.78 5.92525 13.78 2.91971 14.9067C2.57622 14.9934 2.23273 15.1667 1.88924 15.34C1.80337 15.4267 1.7175 15.5134 1.7175 15.86V16.2934C1.7175 17.16 1.63162 16.8134 2.23273 17.16C3.43495 17.8534 4.12193 19.6734 4.46542 22.1867C4.98065 25.8267 6.78398 28.1667 9.61777 29.2067C12.2798 30.2467 15.2854 30.1601 17.9474 29.1201C19.4072 28.5134 20.6953 27.6467 21.7258 26.0867C23.5291 23.4867 22.928 21.8401 23.8726 19.5867C24.6455 17.5934 26.8781 17.5934 27.7369 19.5867C28.6815 21.8401 28.0804 23.4867 29.8837 26.0867C30.9142 27.5601 32.2022 28.5134 33.6621 29.1201C36.3241 30.1601 39.3297 30.2467 41.9917 29.2067C44.9114 28.0801 46.6288 25.8267 47.1441 22.1867C47.4876 19.6734 48.1745 17.8534 49.3767 17.16C49.9779 16.8134 49.892 17.16 49.892 16.2934V15.86C49.892 15.5134 49.892 15.4267 49.6344 15.34C49.2909 15.1667 48.9474 14.9934 48.6039 14.9067C45.5125 13.78 39.4155 13.78 36.5817 14.04C33.5762 14.3 31.0859 14.9934 29.025 16.0334Z" fill="#494949"/>
<path d="M36.5816 34.9265C29.6259 39.8665 21.8974 39.7799 14.9417 34.9265C14.083 34.3199 13.396 35.3599 13.9112 36.3132C16.0581 39.7799 20.2658 42.9865 25.7616 42.9865C31.2575 42.9865 35.4652 39.8665 37.6121 36.3132C38.1273 35.3599 37.4403 34.3199 36.5816 34.9265Z" fill="#664E27"/>
</svg>
