<svg width="35" height="45" viewBox="0 0 35 45" fill="none" xmlns="http://www.w3.org/2000/svg">
<path d="M17.5001 44C26.5583 44 34 36.9848 34 27.9805C34 25.7699 33.885 23.4003 32.6313 19.7175C31.3775 16.0347 31.1249 15.5594 29.7992 13.285C29.2328 17.9263 26.2023 19.8607 25.4324 20.4388C25.4324 19.8373 23.5991 13.1861 20.8195 9.20644C18.0908 5.3 14.3798 2.73711 12.2039 1C12.2039 4.3 11.2542 9.20644 9.894 11.7064C8.53384 14.2063 8.27842 14.2973 6.57946 16.1577C4.88061 18.0181 4.10081 18.5927 2.68015 20.85C1.25956 23.1074 1 26.1139 1 28.3245C1 37.3288 8.44188 44 17.5001 44Z" fill="white" stroke="#FF5C00" stroke-linejoin="round" stroke-dasharray="4 4"/>
<path d="M15.875 22V26.875H11V30.125H15.875V35H19.125V30.125H24V26.875H19.125V22H15.875Z" fill="#FF5C00"/>
</svg>
