<svg width="33" height="43" viewBox="0 0 33 43" fill="none" xmlns="http://www.w3.org/2000/svg">
<path d="M16.5001 43C25.5583 43 33 35.9848 33 26.9805C33 24.7699 32.885 22.4003 31.6313 18.7175C30.3775 15.0347 30.1249 14.5594 28.7992 12.285C28.2328 16.9263 25.2023 18.8607 24.4324 19.4388C24.4324 18.8373 22.5991 12.1861 19.8195 8.20644C17.0908 4.3 13.3798 1.73711 11.2039 0C11.2039 3.3 10.2542 8.20644 8.894 10.7064C7.53384 13.2063 7.27842 13.2973 5.57946 15.1577C3.88061 17.0181 3.10081 17.5927 1.68015 19.85C0.259558 22.1074 0 25.1139 0 27.3245C0 36.3288 7.44188 43 16.5001 43Z" fill="#FF5C00"/>
</svg>
