<svg width="197" height="173" viewBox="0 0 197 173" fill="none" xmlns="http://www.w3.org/2000/svg">
<path d="M37.3593 152.965L84.8645 88.8016L52.4746 30.1913C50.6237 32.9675 49.3898 36.9777 48.7729 41.2964L36.4338 142.168C35.8169 146.487 36.1254 150.188 37.3593 152.965ZM194.065 3.66235L125.892 87.2592L174.014 168.697C177.099 165.304 179.258 160.676 179.875 154.815L196.841 17.5438C197.458 11.3742 196.224 6.74711 194.065 3.66235Z" fill="#B0BDC6"/>
<path d="M99.6715 117.489L84.8646 88.8012L37.3594 152.964C38.2848 155.432 39.8272 157.283 41.678 157.591L164.76 172.707C168.153 173.015 171.238 171.473 174.014 168.388L125.892 87.2588L99.6715 117.489Z" fill="#CAD5DD"/>
<path d="M186.044 0.269042L58.0268 25.564C56.1759 25.8725 54.0166 27.7234 52.4742 30.4997L84.8642 89.11L99.671 117.798L125.583 87.2592L194.065 3.66227C192.214 0.885993 189.129 -0.656385 186.044 0.269042Z" fill="#DFE9EF"/>
<path d="M27.7964 126.436C30.2642 126.436 32.1151 128.595 31.8066 131.063L29.6473 149.88C29.3388 152.348 27.1795 154.198 24.4032 153.89L4.96925 151.114C2.50144 150.805 0.650587 148.337 0.959063 145.87L3.11839 130.446C3.42687 127.978 5.89467 125.819 8.36248 125.819L27.7964 126.436ZM34.2744 79.2389C36.7422 78.9304 38.5931 80.7812 38.2846 83.5575L35.8168 104.534C35.5083 107.002 33.0405 109.161 30.5727 109.161H4.04382C1.57601 109.161 -0.27484 107.002 0.0336357 104.534L2.80992 86.3338C3.11839 83.866 5.5862 81.7067 8.054 81.3982L34.2744 79.2389ZM40.7524 28.9573C43.2202 28.6488 45.0711 30.1912 44.7626 32.659L42.2948 53.9438C41.9863 56.4117 39.5185 58.8795 37.0507 59.1879L4.35229 62.5812C1.88449 62.8896 0.0336357 61.0388 0.650587 58.571L3.73534 40.3709C4.04382 37.9031 6.51162 35.4353 8.97943 35.1268L40.7524 28.9573Z" fill="#79D3F7"/>
</svg>
