<svg width="82" height="109" viewBox="0 0 82 109" fill="none" xmlns="http://www.w3.org/2000/svg">
<path d="M41.0003 109C63.5086 109 82 91.2172 82 68.3923C82 62.7889 81.7144 56.7822 78.5989 47.4466C75.4834 38.1113 74.8558 36.9063 71.5616 31.141C70.1542 42.9062 62.6238 47.8096 60.7107 49.2751C60.7107 47.7504 56.1553 30.8903 49.2484 20.8024C42.4681 10.9 33.2468 4.40338 27.84 0C27.84 8.36512 25.48 20.8024 22.1002 27.1394C18.7204 33.4764 18.0858 33.7072 13.8641 38.423C9.64272 43.1389 7.70504 44.5954 4.17492 50.3174C0.644962 56.0396 0 63.6609 0 69.2643C0 92.0892 18.4919 109 41.0003 109Z" fill="#FF5C00"/>
<path d="M43.5002 102C57.4993 102 69 91.0693 69 77.0393C69 73.595 68.8223 69.9028 66.8847 64.1644C64.947 58.4262 64.5567 57.6855 62.5078 54.1417C61.6325 61.3735 56.949 64.3875 55.7591 65.2884C55.7591 64.3512 52.9259 53.9876 48.6301 47.7868C44.4131 41.7 38.6779 37.7067 35.3151 35C35.3151 40.1419 33.8473 47.7868 31.7453 51.682C29.6432 55.5772 29.2485 55.7191 26.6228 58.6178C23.9973 61.5166 22.7922 62.4119 20.5966 65.929C18.4011 69.4464 18 74.131 18 77.5753C18 91.6053 29.5011 102 43.5002 102Z" fill="#FDD67C"/>
</svg>
