<svg width="232" height="96" viewBox="0 0 232 96" fill="none" xmlns="http://www.w3.org/2000/svg">
<path d="M204.5 73C219.597 73 232 61.0904 232 45.804C232 42.0513 231.808 38.0284 229.719 31.7762C227.629 25.5241 227.208 24.7171 224.999 20.8559C224.055 28.7354 219.004 32.0193 217.721 33.0007C217.721 31.9797 214.665 20.688 210.032 13.9319C205.485 7.3 199.3 2.94905 195.673 0C195.673 5.60233 194.09 13.9319 191.823 18.1759C189.556 22.4199 189.131 22.5745 186.299 25.7329C183.468 28.8912 182.168 29.8667 179.8 33.6988C177.433 37.5311 177 42.6353 177 46.388C177 61.6744 189.403 73 204.5 73Z" fill="#FDD67C"/>
<path d="M6.192 37.768L15.072 37.816C19.712 37.816 23.792 39.496 27.312 42.856C30.832 46.184 32.592 50.296 32.592 55.192C32.592 60.056 30.864 64.232 27.408 67.72C23.984 71.208 19.824 72.952 14.928 72.952H6.144C4.192 72.952 2.976 72.552 2.496 71.752C2.112 71.08 1.92 70.056 1.92 68.68V41.992C1.92 41.224 1.936 40.664 1.968 40.312C2.032 39.96 2.192 39.544 2.448 39.064C2.896 38.2 4.144 37.768 6.192 37.768ZM15.072 64.456C17.376 64.456 19.456 63.608 21.312 61.912C23.168 60.184 24.096 58.024 24.096 55.432C24.096 52.84 23.184 50.68 21.36 48.952C19.568 47.192 17.456 46.312 15.024 46.312H10.416V64.456H15.072ZM34.9969 60.376C34.9969 56.536 36.3409 53.368 39.0289 50.872C41.7169 48.376 44.7889 47.128 48.2449 47.128C51.7009 47.128 54.7569 48.376 57.4129 50.872C60.0689 53.336 61.3969 56.488 61.3969 60.328C61.3969 62.984 60.7089 65.352 59.3329 67.432C57.9569 69.48 56.2769 71 54.2929 71.992C52.3409 72.952 50.3089 73.432 48.1969 73.432C46.0849 73.432 44.0369 72.92 42.0529 71.896C40.0689 70.84 38.3889 69.304 37.0129 67.288C35.6689 65.24 34.9969 62.936 34.9969 60.376ZM45.0289 63.832C46.0529 64.6 47.0929 64.984 48.1489 64.984C49.2049 64.984 50.2609 64.584 51.3169 63.784C52.3729 62.984 52.9009 61.8 52.9009 60.232C52.9009 58.664 52.4049 57.496 51.4129 56.728C50.4209 55.96 49.3489 55.576 48.1969 55.576C47.0449 55.576 45.9729 55.976 44.9809 56.776C43.9889 57.576 43.4929 58.76 43.4929 60.328C43.4929 61.864 44.0049 63.032 45.0289 63.832ZM101.695 54.136C103.583 56.376 104.527 58.888 104.527 61.672C104.463 64.872 103.359 67.56 101.215 69.736C99.1028 71.88 96.5268 72.952 93.4868 72.952H80.8628C78.6228 72.952 77.3108 72.344 76.9268 71.128C76.7348 70.584 76.6388 69.752 76.6388 68.632V41.992C76.6388 41.224 76.6548 40.664 76.6868 40.312C76.7508 39.96 76.9108 39.544 77.1668 39.064C77.6148 38.2 78.8628 37.768 80.9108 37.768H93.0068C95.9508 37.768 98.4148 38.792 100.399 40.84C102.479 42.92 103.519 45.416 103.519 48.328C103.519 50.44 102.911 52.376 101.695 54.136ZM96.0308 61.192C96.0308 60.424 95.9348 59.816 95.7428 59.368C95.5828 58.92 95.2948 58.6 94.8788 58.408C94.2388 58.152 93.3428 58.024 92.1908 58.024C91.0388 58.024 90.1748 57.8 89.5988 57.352C89.0228 56.904 88.7348 55.992 88.7348 54.616C88.7348 53.208 89.0228 52.28 89.5988 51.832C90.2068 51.384 91.1988 51.16 92.5748 51.16C93.8548 51.16 94.6228 50.824 94.8788 50.152C94.9748 49.8 95.0228 49.224 95.0228 48.424C95.0228 47.624 94.7508 47.064 94.2068 46.744C93.6948 46.424 92.9108 46.264 91.8548 46.264H85.1348V64.456H93.0068C95.0228 64.456 96.0308 63.368 96.0308 61.192ZM124.086 50.392C124.278 48.6 125.542 47.704 127.878 47.704C129.126 47.704 130.054 47.8 130.662 47.992C131.27 48.184 131.686 48.52 131.91 49C132.166 49.48 132.31 49.912 132.342 50.296C132.406 50.648 132.438 51.192 132.438 51.928V68.728C132.438 69.464 132.406 70.024 132.342 70.408C132.31 70.76 132.182 71.176 131.958 71.656C131.51 72.488 130.406 72.904 128.646 72.904C126.918 72.904 125.75 72.696 125.142 72.28C124.566 71.832 124.23 71.192 124.134 70.36C122.95 72.056 120.966 72.904 118.182 72.904C115.43 72.904 112.87 71.64 110.502 69.112C108.134 66.584 106.95 63.656 106.95 60.328C106.95 56.968 108.134 54.04 110.502 51.544C112.902 49.016 115.526 47.752 118.374 47.752C119.462 47.752 120.454 47.944 121.35 48.328C122.246 48.712 122.87 49.08 123.222 49.432C123.574 49.752 123.862 50.072 124.086 50.392ZM115.35 60.376C115.35 61.432 115.766 62.392 116.598 63.256C117.43 64.088 118.438 64.504 119.622 64.504C120.806 64.504 121.782 64.072 122.55 63.208C123.35 62.344 123.75 61.4 123.75 60.376C123.75 59.32 123.366 58.344 122.598 57.448C121.862 56.552 120.854 56.104 119.574 56.104C118.326 56.104 117.302 56.552 116.502 57.448C115.734 58.344 115.35 59.32 115.35 60.376ZM167.512 56.2L164.392 56.008V62.632C164.392 63.496 164.52 64.12 164.776 64.504C165.064 64.888 165.576 65.08 166.312 65.08C167.08 65.08 167.656 65.112 168.04 65.176C168.456 65.208 168.872 65.352 169.288 65.608C170.056 66.024 170.44 67.096 170.44 68.824C170.44 70.84 169.992 72.072 169.096 72.52C168.616 72.744 168.184 72.888 167.8 72.952C167.448 72.984 166.92 73 166.216 73C163.016 73 160.52 72.168 158.728 70.504C156.936 68.84 156.04 66.376 156.04 63.112V56.008C154.504 56.136 153.224 56.2 152.2 56.2L147.832 56.008V62.632C147.832 63.496 147.96 64.12 148.216 64.504C148.504 64.888 149.016 65.08 149.752 65.08C150.52 65.08 151.096 65.112 151.48 65.176C151.896 65.208 152.328 65.352 152.776 65.608C153.512 66.024 153.88 67.096 153.88 68.824C153.88 70.84 153.432 72.072 152.536 72.52C152.056 72.744 151.624 72.888 151.24 72.952C150.888 72.984 150.36 73 149.656 73C146.456 73 143.96 72.168 142.168 70.504C140.376 68.84 139.48 66.376 139.48 63.112V56.008C138.84 56.104 138.168 56.152 137.464 56.152C136.792 56.152 136.216 55.88 135.736 55.336C135.288 54.792 135.064 53.864 135.064 52.552C135.064 51.24 135.144 50.296 135.304 49.72C135.464 49.112 135.688 48.68 135.976 48.424C136.488 48.008 137.128 47.8 137.896 47.8L139.48 47.992V43.048C139.48 42.312 139.496 41.768 139.528 41.416C139.592 41.064 139.752 40.68 140.008 40.264C140.424 39.464 141.656 39.064 143.704 39.064C145.88 39.064 147.176 39.656 147.592 40.84C147.752 41.352 147.832 42.168 147.832 43.288V47.848C149.336 47.816 150.76 47.8 152.104 47.8L156.04 47.848V43.048C156.04 42.312 156.056 41.768 156.088 41.416C156.152 41.064 156.296 40.68 156.52 40.264C156.968 39.464 158.216 39.064 160.264 39.064C162.44 39.064 163.72 39.656 164.104 40.84C164.296 41.352 164.392 42.168 164.392 43.288V47.992C165.8 47.864 166.856 47.8 167.56 47.8C168.296 47.8 168.84 47.832 169.192 47.896C169.576 47.928 169.992 48.072 170.44 48.328C171.304 48.744 171.736 49.976 171.736 52.024C171.736 54.04 171.304 55.272 170.44 55.72C169.96 55.944 169.528 56.088 169.144 56.152C168.792 56.184 168.248 56.2 167.512 56.2ZM174.373 40.024C174.373 39.288 174.389 38.744 174.421 38.392C174.485 38.008 174.629 37.576 174.853 37.096C175.301 36.232 176.549 35.8 178.597 35.8C180.549 35.8 181.765 36.232 182.245 37.096C182.501 37.576 182.645 38.008 182.677 38.392C182.741 38.776 182.773 39.336 182.773 40.072V62.296C182.773 63.448 182.869 64.184 183.061 64.504C183.253 64.792 183.669 64.936 184.309 64.936C184.981 64.936 185.429 64.968 185.653 65.032C185.877 65.064 186.149 65.192 186.469 65.416C187.109 65.832 187.429 66.968 187.429 68.824C187.429 70.84 187.109 72.072 186.469 72.52C185.637 73.096 183.653 73.192 180.517 72.808C178.053 72.488 176.453 71.672 175.717 70.36C174.821 68.792 174.373 66.296 174.373 62.872V40.024ZM213.992 57.352C213.992 59.304 213.496 60.76 212.504 61.72C211.544 62.648 210.472 63.112 209.288 63.112H197.912C197.912 64.008 198.44 64.76 199.496 65.368C200.552 65.976 201.608 66.28 202.664 66.28C204.52 66.28 205.976 66.088 207.032 65.704L207.56 65.512C208.328 65.16 208.968 64.984 209.48 64.984C210.504 64.984 211.384 65.704 212.12 67.144C212.536 68.008 212.744 68.744 212.744 69.352C212.744 72.2 209.336 73.624 202.52 73.624C200.152 73.624 198.04 73.224 196.184 72.424C194.36 71.592 192.936 70.504 191.912 69.16C189.896 66.568 188.888 63.672 188.888 60.472C188.888 56.44 190.184 53.224 192.776 50.824C195.4 48.392 198.664 47.176 202.568 47.176C207.016 47.176 210.28 48.744 212.359 51.88C213.448 53.544 213.992 55.368 213.992 57.352ZM203.864 58.744C205.08 58.744 205.688 58.232 205.688 57.208C205.688 56.472 205.4 55.88 204.824 55.432C204.28 54.984 203.48 54.76 202.424 54.76C201.4 54.76 200.376 55.192 199.352 56.056C198.328 56.888 197.816 57.784 197.816 58.744H203.864ZM217.603 65.704C217.923 65.064 218.403 64.632 219.043 64.408C219.715 64.184 220.739 64.072 222.115 64.072C223.523 64.072 224.531 64.376 225.139 64.984C225.779 65.592 226.099 66.552 226.099 67.864V68.632C226.099 69.4 226.067 69.976 226.003 70.36C225.971 70.712 225.827 71.144 225.571 71.656C225.059 72.584 223.827 73.048 221.875 73.048C219.955 73.048 218.675 72.744 218.035 72.136C217.427 71.496 217.123 70.28 217.123 68.488C217.123 67.24 217.283 66.312 217.603 65.704ZM224.035 60.088C223.427 60.248 222.611 60.328 221.587 60.328C220.563 60.328 219.747 60.248 219.139 60.088C218.531 59.928 218.099 59.64 217.843 59.224C217.619 58.808 217.475 58.44 217.411 58.12C217.379 57.8 217.363 57.304 217.363 56.632V41.416C217.363 40.744 217.379 40.248 217.411 39.928C217.475 39.576 217.635 39.192 217.891 38.776C218.147 38.36 218.579 38.072 219.187 37.912C219.795 37.72 220.611 37.624 221.635 37.624C222.659 37.624 223.475 37.72 224.083 37.912C224.691 38.072 225.107 38.376 225.331 38.824C225.587 39.24 225.731 39.624 225.763 39.976C225.827 40.296 225.859 40.792 225.859 41.464V56.68C225.859 57.352 225.827 57.848 225.763 58.168C225.731 58.488 225.587 58.856 225.331 59.272C225.075 59.656 224.643 59.928 224.035 60.088Z" fill="#FF5C00"/>
<path d="M9.35156 88.0547L12.7891 79.7344H14.3906L9.70312 90.75C8.72656 93.0156 7.24219 93.9531 5.09375 94.3438L4.74219 93.0938C5.67969 92.8594 6.38281 92.5859 6.89062 92.2344C7.35938 91.8828 7.78906 91.3359 8.10156 90.5938L8.49219 89.6953L4.23438 79.7344H5.95312L9.35156 88.0547ZM15.6016 84.7344C15.6016 81.5703 17.4766 79.5 20.3281 79.5C23.2188 79.5 25.0938 81.5703 25.0938 84.7344C25.0938 87.8984 23.2188 89.9688 20.3281 89.9688C17.4766 89.9688 15.6016 87.8984 15.6016 84.7344ZM23.4531 84.7344C23.4531 82.2734 22.2812 80.8672 20.3281 80.8672C18.375 80.8672 17.2422 82.2734 17.2422 84.7344C17.2422 87.2734 18.3359 88.6016 20.3281 88.6016C22.3594 88.6016 23.4531 87.2734 23.4531 84.7344ZM34.4297 85.4375V79.7344H36.0312V89.8125H34.4688V88.0547C33.8438 89.3047 32.6328 89.9688 31.1875 89.9688C28.8047 89.9688 27.5547 88.6016 27.5547 85.9844V79.7344H29.1953V85.9453C29.1953 87.7812 29.9375 88.6016 31.4609 88.6016C33.2188 88.6016 34.4297 87.3516 34.4297 85.4375ZM44.6641 79.6172L44.625 81.1016C44.3516 81.0234 43.9609 80.9453 43.5703 80.9453C42.5938 80.9453 41.8906 81.2578 41.3828 81.8828C40.9531 82.4688 40.6797 83.2109 40.6797 84.0703V89.8125H39.0781V82.5859C39.0781 81.5312 39 80.5938 38.9219 79.7344H40.4453L40.6016 81.6094C41.1094 80.2422 42.3203 79.5 43.7656 79.5C44.0781 79.5 44.3906 79.5391 44.6641 79.6172ZM64.9375 84.7734C64.9375 87.8984 63.1406 89.9688 60.4453 89.9688C58.8828 89.9688 57.6719 89.2266 57.0469 87.9375V94.1484H55.4453V82.5859C55.4453 81.5312 55.3672 80.5938 55.2891 79.7344H56.8125L56.9688 81.6875C57.5547 80.3203 58.8047 79.5 60.4453 79.5C63.1406 79.5 64.9375 81.6484 64.9375 84.7734ZM63.2578 84.7734C63.2578 82.3125 62.0859 80.8672 60.1719 80.8672C58.1797 80.8672 57.0469 82.2344 57.0469 84.7344C57.0469 87.1953 58.1797 88.6016 60.1719 88.6016C62.125 88.6016 63.2578 87.2344 63.2578 84.7734ZM76.3047 84.4219V84.7344H68.9609C68.9609 87.2734 70.1328 88.6016 72.3594 88.6016C73.5312 88.6016 74.625 88.2109 75.6016 87.4297L76.1484 88.6016C75.25 89.4219 73.7656 89.9688 72.3594 89.9688C69.1953 89.9688 67.3203 87.9766 67.3203 84.7344C67.3203 81.6484 69.2734 79.5 72.0469 79.5C74.7031 79.5 76.3047 81.375 76.3047 84.4219ZM69 83.6797H74.8594C74.7031 81.7656 73.7266 80.7891 72.0469 80.7891C70.3672 80.7891 69.3125 81.8438 69 83.6797ZM84.4297 79.6172L84.3906 81.1016C84.1172 81.0234 83.7266 80.9453 83.3359 80.9453C82.3594 80.9453 81.6562 81.2578 81.1484 81.8828C80.7188 82.4688 80.4453 83.2109 80.4453 84.0703V89.8125H78.8438V82.5859C78.8438 81.5312 78.7656 80.5938 78.6875 79.7344H80.2109L80.3672 81.6094C80.875 80.2422 82.0859 79.5 83.5312 79.5C83.8438 79.5 84.1562 79.5391 84.4297 79.6172ZM86.7734 88.6406L87.3203 87.4688C88.4141 88.3281 89.4688 88.6406 90.875 88.6406C92.3594 88.6406 93.1797 88.0938 93.1797 87.1172C93.1797 86.3359 92.6719 85.9062 91.4609 85.5938L89.7422 85.2031C88.0625 84.8125 87.125 83.8359 87.125 82.5078C87.125 80.75 88.6484 79.5 90.9922 79.5C92.3984 79.5 93.6875 79.9688 94.5469 80.8281L94 82C93.0625 81.2188 92.0469 80.8281 90.9922 80.8281C89.5469 80.8281 88.7266 81.4141 88.7266 82.3906C88.7266 83.2109 89.1953 83.6797 90.2891 83.9141L91.9688 84.3438C93.8438 84.8125 94.7422 85.6719 94.7422 87.0781C94.7422 88.8359 93.2188 89.9688 90.7969 89.9688C89.0781 89.9688 87.75 89.5 86.7734 88.6406ZM96.6562 84.7344C96.6562 81.5703 98.5312 79.5 101.383 79.5C104.273 79.5 106.148 81.5703 106.148 84.7344C106.148 87.8984 104.273 89.9688 101.383 89.9688C98.5312 89.9688 96.6562 87.8984 96.6562 84.7344ZM104.508 84.7344C104.508 82.2734 103.336 80.8672 101.383 80.8672C99.4297 80.8672 98.2969 82.2734 98.2969 84.7344C98.2969 87.2734 99.3906 88.6016 101.383 88.6016C103.414 88.6016 104.508 87.2734 104.508 84.7344ZM117.32 83.4844V89.8125H115.719V83.5625C115.719 81.7266 114.977 80.8672 113.375 80.8672C111.539 80.8672 110.289 82.1172 110.289 84.0703V89.8125H108.688V82.5859C108.688 81.5312 108.609 80.5938 108.531 79.7344H110.055L110.211 81.5703C110.836 80.2422 112.125 79.5 113.688 79.5C116.109 79.5 117.32 80.8281 117.32 83.4844ZM127.555 81.4922V79.7344H129.156V89.8125H127.555V87.9766C126.969 89.2656 125.719 89.9688 124.156 89.9688C121.461 89.9688 119.703 87.8984 119.703 84.7734C119.703 81.6484 121.5 79.5 124.156 79.5C125.719 79.5 126.93 80.2422 127.555 81.4922ZM127.555 84.7344C127.555 82.2344 126.461 80.8672 124.469 80.8672C122.477 80.8672 121.344 82.3125 121.344 84.7734C121.344 87.2344 122.477 88.6016 124.469 88.6016C126.461 88.6016 127.555 87.1953 127.555 84.7344ZM133.297 75.0859V89.8125H131.695V75.0859H133.297ZM158.727 83.4844V89.8125H157.125V83.5625C157.125 81.6875 156.5 80.8672 155.016 80.8672C153.336 80.8672 152.32 82.0781 152.32 84.0703V89.8125H150.68V83.5625C150.68 81.7266 150.055 80.8672 148.609 80.8672C146.891 80.8672 145.836 82.0781 145.836 84.0703V89.8125H144.234V82.5859C144.234 81.5312 144.156 80.5938 144.078 79.7344H145.602L145.758 81.5312C146.344 80.2422 147.477 79.5 148.961 79.5C150.562 79.5 151.539 80.125 152.047 81.4531C152.633 80.2812 153.883 79.5 155.406 79.5C157.594 79.5 158.727 80.8281 158.727 83.4844ZM161.109 84.7344C161.109 81.5703 162.984 79.5 165.836 79.5C168.727 79.5 170.602 81.5703 170.602 84.7344C170.602 87.8984 168.727 89.9688 165.836 89.9688C162.984 89.9688 161.109 87.8984 161.109 84.7344ZM168.961 84.7344C168.961 82.2734 167.789 80.8672 165.836 80.8672C163.883 80.8672 162.75 82.2734 162.75 84.7344C162.75 87.2734 163.844 88.6016 165.836 88.6016C167.867 88.6016 168.961 87.2734 168.961 84.7344ZM178.18 79.7344V81.0234H175.289V86.5312C175.289 88.0156 175.953 88.5625 177.047 88.5625C177.438 88.5625 177.789 88.4844 178.141 88.3672V89.7344C177.711 89.8906 177.242 89.9688 176.734 89.9688C174.82 89.9688 173.688 88.8359 173.688 86.7656V81.0234H171.734V79.7344H173.688V77.1562L175.289 76.6094V79.7344H178.18ZM181.695 77.3125H179.742V75.4766H181.695V77.3125ZM181.5 79.7344V89.8125H179.898V79.7344H181.5ZM185.055 79.7734L188.453 88.0547L191.891 79.7734H193.492L189.156 89.8125H187.633L183.336 79.7734H185.055ZM202.555 81.4922V79.7344H204.156V89.8125H202.555V87.9766C201.969 89.2656 200.719 89.9688 199.156 89.9688C196.461 89.9688 194.703 87.8984 194.703 84.7734C194.703 81.6484 196.5 79.5 199.156 79.5C200.719 79.5 201.93 80.2422 202.555 81.4922ZM202.555 84.7344C202.555 82.2344 201.461 80.8672 199.469 80.8672C197.477 80.8672 196.344 82.3125 196.344 84.7734C196.344 87.2344 197.477 88.6016 199.469 88.6016C201.461 88.6016 202.555 87.1953 202.555 84.7344ZM211.734 79.7344V81.0234H208.844V86.5312C208.844 88.0156 209.508 88.5625 210.602 88.5625C210.992 88.5625 211.344 88.4844 211.695 88.3672V89.7344C211.266 89.8906 210.797 89.9688 210.289 89.9688C208.375 89.9688 207.242 88.8359 207.242 86.7656V81.0234H205.289V79.7344H207.242V77.1562L208.844 76.6094V79.7344H211.734ZM212.867 84.7344C212.867 81.5703 214.742 79.5 217.594 79.5C220.484 79.5 222.359 81.5703 222.359 84.7344C222.359 87.8984 220.484 89.9688 217.594 89.9688C214.742 89.9688 212.867 87.8984 212.867 84.7344ZM220.719 84.7344C220.719 82.2734 219.547 80.8672 217.594 80.8672C215.641 80.8672 214.508 82.2734 214.508 84.7344C214.508 87.2734 215.602 88.6016 217.594 88.6016C219.625 88.6016 220.719 87.2734 220.719 84.7344ZM230.484 79.6172L230.445 81.1016C230.172 81.0234 229.781 80.9453 229.391 80.9453C228.414 80.9453 227.711 81.2578 227.203 81.8828C226.773 82.4688 226.5 83.2109 226.5 84.0703V89.8125H224.898V82.5859C224.898 81.5312 224.82 80.5938 224.742 79.7344H226.266L226.422 81.6094C226.93 80.2422 228.141 79.5 229.586 79.5C229.898 79.5 230.211 79.5391 230.484 79.6172Z" fill="#F3C05F"/>
<path d="M6.192 37.768L15.072 37.816C19.712 37.816 23.792 39.496 27.312 42.856C30.832 46.184 32.592 50.296 32.592 55.192C32.592 60.056 30.864 64.232 27.408 67.72C23.984 71.208 19.824 72.952 14.928 72.952H6.144C4.192 72.952 2.976 72.552 2.496 71.752C2.112 71.08 1.92 70.056 1.92 68.68V41.992C1.92 41.224 1.936 40.664 1.968 40.312C2.032 39.96 2.192 39.544 2.448 39.064C2.896 38.2 4.144 37.768 6.192 37.768ZM15.072 64.456C17.376 64.456 19.456 63.608 21.312 61.912C23.168 60.184 24.096 58.024 24.096 55.432C24.096 52.84 23.184 50.68 21.36 48.952C19.568 47.192 17.456 46.312 15.024 46.312H10.416V64.456H15.072ZM34.9969 60.376C34.9969 56.536 36.3409 53.368 39.0289 50.872C41.7169 48.376 44.7889 47.128 48.2449 47.128C51.7009 47.128 54.7569 48.376 57.4129 50.872C60.0689 53.336 61.3969 56.488 61.3969 60.328C61.3969 62.984 60.7089 65.352 59.3329 67.432C57.9569 69.48 56.2769 71 54.2929 71.992C52.3409 72.952 50.3089 73.432 48.1969 73.432C46.0849 73.432 44.0369 72.92 42.0529 71.896C40.0689 70.84 38.3889 69.304 37.0129 67.288C35.6689 65.24 34.9969 62.936 34.9969 60.376ZM45.0289 63.832C46.0529 64.6 47.0929 64.984 48.1489 64.984C49.2049 64.984 50.2609 64.584 51.3169 63.784C52.3729 62.984 52.9009 61.8 52.9009 60.232C52.9009 58.664 52.4049 57.496 51.4129 56.728C50.4209 55.96 49.3489 55.576 48.1969 55.576C47.0449 55.576 45.9729 55.976 44.9809 56.776C43.9889 57.576 43.4929 58.76 43.4929 60.328C43.4929 61.864 44.0049 63.032 45.0289 63.832ZM101.695 54.136C103.583 56.376 104.527 58.888 104.527 61.672C104.463 64.872 103.359 67.56 101.215 69.736C99.1028 71.88 96.5268 72.952 93.4868 72.952H80.8628C78.6228 72.952 77.3108 72.344 76.9268 71.128C76.7348 70.584 76.6388 69.752 76.6388 68.632V41.992C76.6388 41.224 76.6548 40.664 76.6868 40.312C76.7508 39.96 76.9108 39.544 77.1668 39.064C77.6148 38.2 78.8628 37.768 80.9108 37.768H93.0068C95.9508 37.768 98.4148 38.792 100.399 40.84C102.479 42.92 103.519 45.416 103.519 48.328C103.519 50.44 102.911 52.376 101.695 54.136ZM96.0308 61.192C96.0308 60.424 95.9348 59.816 95.7428 59.368C95.5828 58.92 95.2948 58.6 94.8788 58.408C94.2388 58.152 93.3428 58.024 92.1908 58.024C91.0388 58.024 90.1748 57.8 89.5988 57.352C89.0228 56.904 88.7348 55.992 88.7348 54.616C88.7348 53.208 89.0228 52.28 89.5988 51.832C90.2068 51.384 91.1988 51.16 92.5748 51.16C93.8548 51.16 94.6228 50.824 94.8788 50.152C94.9748 49.8 95.0228 49.224 95.0228 48.424C95.0228 47.624 94.7508 47.064 94.2068 46.744C93.6948 46.424 92.9108 46.264 91.8548 46.264H85.1348V64.456H93.0068C95.0228 64.456 96.0308 63.368 96.0308 61.192ZM124.086 50.392C124.278 48.6 125.542 47.704 127.878 47.704C129.126 47.704 130.054 47.8 130.662 47.992C131.27 48.184 131.686 48.52 131.91 49C132.166 49.48 132.31 49.912 132.342 50.296C132.406 50.648 132.438 51.192 132.438 51.928V68.728C132.438 69.464 132.406 70.024 132.342 70.408C132.31 70.76 132.182 71.176 131.958 71.656C131.51 72.488 130.406 72.904 128.646 72.904C126.918 72.904 125.75 72.696 125.142 72.28C124.566 71.832 124.23 71.192 124.134 70.36C122.95 72.056 120.966 72.904 118.182 72.904C115.43 72.904 112.87 71.64 110.502 69.112C108.134 66.584 106.95 63.656 106.95 60.328C106.95 56.968 108.134 54.04 110.502 51.544C112.902 49.016 115.526 47.752 118.374 47.752C119.462 47.752 120.454 47.944 121.35 48.328C122.246 48.712 122.87 49.08 123.222 49.432C123.574 49.752 123.862 50.072 124.086 50.392ZM115.35 60.376C115.35 61.432 115.766 62.392 116.598 63.256C117.43 64.088 118.438 64.504 119.622 64.504C120.806 64.504 121.782 64.072 122.55 63.208C123.35 62.344 123.75 61.4 123.75 60.376C123.75 59.32 123.366 58.344 122.598 57.448C121.862 56.552 120.854 56.104 119.574 56.104C118.326 56.104 117.302 56.552 116.502 57.448C115.734 58.344 115.35 59.32 115.35 60.376ZM167.512 56.2L164.392 56.008V62.632C164.392 63.496 164.52 64.12 164.776 64.504C165.064 64.888 165.576 65.08 166.312 65.08C167.08 65.08 167.656 65.112 168.04 65.176C168.456 65.208 168.872 65.352 169.288 65.608C170.056 66.024 170.44 67.096 170.44 68.824C170.44 70.84 169.992 72.072 169.096 72.52C168.616 72.744 168.184 72.888 167.8 72.952C167.448 72.984 166.92 73 166.216 73C163.016 73 160.52 72.168 158.728 70.504C156.936 68.84 156.04 66.376 156.04 63.112V56.008C154.504 56.136 153.224 56.2 152.2 56.2L147.832 56.008V62.632C147.832 63.496 147.96 64.12 148.216 64.504C148.504 64.888 149.016 65.08 149.752 65.08C150.52 65.08 151.096 65.112 151.48 65.176C151.896 65.208 152.328 65.352 152.776 65.608C153.512 66.024 153.88 67.096 153.88 68.824C153.88 70.84 153.432 72.072 152.536 72.52C152.056 72.744 151.624 72.888 151.24 72.952C150.888 72.984 150.36 73 149.656 73C146.456 73 143.96 72.168 142.168 70.504C140.376 68.84 139.48 66.376 139.48 63.112V56.008C138.84 56.104 138.168 56.152 137.464 56.152C136.792 56.152 136.216 55.88 135.736 55.336C135.288 54.792 135.064 53.864 135.064 52.552C135.064 51.24 135.144 50.296 135.304 49.72C135.464 49.112 135.688 48.68 135.976 48.424C136.488 48.008 137.128 47.8 137.896 47.8L139.48 47.992V43.048C139.48 42.312 139.496 41.768 139.528 41.416C139.592 41.064 139.752 40.68 140.008 40.264C140.424 39.464 141.656 39.064 143.704 39.064C145.88 39.064 147.176 39.656 147.592 40.84C147.752 41.352 147.832 42.168 147.832 43.288V47.848C149.336 47.816 150.76 47.8 152.104 47.8L156.04 47.848V43.048C156.04 42.312 156.056 41.768 156.088 41.416C156.152 41.064 156.296 40.68 156.52 40.264C156.968 39.464 158.216 39.064 160.264 39.064C162.44 39.064 163.72 39.656 164.104 40.84C164.296 41.352 164.392 42.168 164.392 43.288V47.992C165.8 47.864 166.856 47.8 167.56 47.8C168.296 47.8 168.84 47.832 169.192 47.896C169.576 47.928 169.992 48.072 170.44 48.328C171.304 48.744 171.736 49.976 171.736 52.024C171.736 54.04 171.304 55.272 170.44 55.72C169.96 55.944 169.528 56.088 169.144 56.152C168.792 56.184 168.248 56.2 167.512 56.2ZM174.373 40.024C174.373 39.288 174.389 38.744 174.421 38.392C174.485 38.008 174.629 37.576 174.853 37.096C175.301 36.232 176.549 35.8 178.597 35.8C180.549 35.8 181.765 36.232 182.245 37.096C182.501 37.576 182.645 38.008 182.677 38.392C182.741 38.776 182.773 39.336 182.773 40.072V62.296C182.773 63.448 182.869 64.184 183.061 64.504C183.253 64.792 183.669 64.936 184.309 64.936C184.981 64.936 185.429 64.968 185.653 65.032C185.877 65.064 186.149 65.192 186.469 65.416C187.109 65.832 187.429 66.968 187.429 68.824C187.429 70.84 187.109 72.072 186.469 72.52C185.637 73.096 183.653 73.192 180.517 72.808C178.053 72.488 176.453 71.672 175.717 70.36C174.821 68.792 174.373 66.296 174.373 62.872V40.024ZM213.992 57.352C213.992 59.304 213.496 60.76 212.504 61.72C211.544 62.648 210.472 63.112 209.288 63.112H197.912C197.912 64.008 198.44 64.76 199.496 65.368C200.552 65.976 201.608 66.28 202.664 66.28C204.52 66.28 205.976 66.088 207.032 65.704L207.56 65.512C208.328 65.16 208.968 64.984 209.48 64.984C210.504 64.984 211.384 65.704 212.12 67.144C212.536 68.008 212.744 68.744 212.744 69.352C212.744 72.2 209.336 73.624 202.52 73.624C200.152 73.624 198.04 73.224 196.184 72.424C194.36 71.592 192.936 70.504 191.912 69.16C189.896 66.568 188.888 63.672 188.888 60.472C188.888 56.44 190.184 53.224 192.776 50.824C195.4 48.392 198.664 47.176 202.568 47.176C207.016 47.176 210.28 48.744 212.359 51.88C213.448 53.544 213.992 55.368 213.992 57.352ZM203.864 58.744C205.08 58.744 205.688 58.232 205.688 57.208C205.688 56.472 205.4 55.88 204.824 55.432C204.28 54.984 203.48 54.76 202.424 54.76C201.4 54.76 200.376 55.192 199.352 56.056C198.328 56.888 197.816 57.784 197.816 58.744H203.864ZM217.603 65.704C217.923 65.064 218.403 64.632 219.043 64.408C219.715 64.184 220.739 64.072 222.115 64.072C223.523 64.072 224.531 64.376 225.139 64.984C225.779 65.592 226.099 66.552 226.099 67.864V68.632C226.099 69.4 226.067 69.976 226.003 70.36C225.971 70.712 225.827 71.144 225.571 71.656C225.059 72.584 223.827 73.048 221.875 73.048C219.955 73.048 218.675 72.744 218.035 72.136C217.427 71.496 217.123 70.28 217.123 68.488C217.123 67.24 217.283 66.312 217.603 65.704ZM224.035 60.088C223.427 60.248 222.611 60.328 221.587 60.328C220.563 60.328 219.747 60.248 219.139 60.088C218.531 59.928 218.099 59.64 217.843 59.224C217.619 58.808 217.475 58.44 217.411 58.12C217.379 57.8 217.363 57.304 217.363 56.632V41.416C217.363 40.744 217.379 40.248 217.411 39.928C217.475 39.576 217.635 39.192 217.891 38.776C218.147 38.36 218.579 38.072 219.187 37.912C219.795 37.72 220.611 37.624 221.635 37.624C222.659 37.624 223.475 37.72 224.083 37.912C224.691 38.072 225.107 38.376 225.331 38.824C225.587 39.24 225.731 39.624 225.763 39.976C225.827 40.296 225.859 40.792 225.859 41.464V56.68C225.859 57.352 225.827 57.848 225.763 58.168C225.731 58.488 225.587 58.856 225.331 59.272C225.075 59.656 224.643 59.928 224.035 60.088Z" fill="#FF5C00"/>
<path d="M9.35156 88.0547L12.7891 79.7344H14.3906L9.70312 90.75C8.72656 93.0156 7.24219 93.9531 5.09375 94.3438L4.74219 93.0938C5.67969 92.8594 6.38281 92.5859 6.89062 92.2344C7.35938 91.8828 7.78906 91.3359 8.10156 90.5938L8.49219 89.6953L4.23438 79.7344H5.95312L9.35156 88.0547ZM15.6016 84.7344C15.6016 81.5703 17.4766 79.5 20.3281 79.5C23.2188 79.5 25.0938 81.5703 25.0938 84.7344C25.0938 87.8984 23.2188 89.9688 20.3281 89.9688C17.4766 89.9688 15.6016 87.8984 15.6016 84.7344ZM23.4531 84.7344C23.4531 82.2734 22.2812 80.8672 20.3281 80.8672C18.375 80.8672 17.2422 82.2734 17.2422 84.7344C17.2422 87.2734 18.3359 88.6016 20.3281 88.6016C22.3594 88.6016 23.4531 87.2734 23.4531 84.7344ZM34.4297 85.4375V79.7344H36.0312V89.8125H34.4688V88.0547C33.8438 89.3047 32.6328 89.9688 31.1875 89.9688C28.8047 89.9688 27.5547 88.6016 27.5547 85.9844V79.7344H29.1953V85.9453C29.1953 87.7812 29.9375 88.6016 31.4609 88.6016C33.2188 88.6016 34.4297 87.3516 34.4297 85.4375ZM44.6641 79.6172L44.625 81.1016C44.3516 81.0234 43.9609 80.9453 43.5703 80.9453C42.5938 80.9453 41.8906 81.2578 41.3828 81.8828C40.9531 82.4688 40.6797 83.2109 40.6797 84.0703V89.8125H39.0781V82.5859C39.0781 81.5312 39 80.5938 38.9219 79.7344H40.4453L40.6016 81.6094C41.1094 80.2422 42.3203 79.5 43.7656 79.5C44.0781 79.5 44.3906 79.5391 44.6641 79.6172ZM64.9375 84.7734C64.9375 87.8984 63.1406 89.9688 60.4453 89.9688C58.8828 89.9688 57.6719 89.2266 57.0469 87.9375V94.1484H55.4453V82.5859C55.4453 81.5312 55.3672 80.5938 55.2891 79.7344H56.8125L56.9688 81.6875C57.5547 80.3203 58.8047 79.5 60.4453 79.5C63.1406 79.5 64.9375 81.6484 64.9375 84.7734ZM63.2578 84.7734C63.2578 82.3125 62.0859 80.8672 60.1719 80.8672C58.1797 80.8672 57.0469 82.2344 57.0469 84.7344C57.0469 87.1953 58.1797 88.6016 60.1719 88.6016C62.125 88.6016 63.2578 87.2344 63.2578 84.7734ZM76.3047 84.4219V84.7344H68.9609C68.9609 87.2734 70.1328 88.6016 72.3594 88.6016C73.5312 88.6016 74.625 88.2109 75.6016 87.4297L76.1484 88.6016C75.25 89.4219 73.7656 89.9688 72.3594 89.9688C69.1953 89.9688 67.3203 87.9766 67.3203 84.7344C67.3203 81.6484 69.2734 79.5 72.0469 79.5C74.7031 79.5 76.3047 81.375 76.3047 84.4219ZM69 83.6797H74.8594C74.7031 81.7656 73.7266 80.7891 72.0469 80.7891C70.3672 80.7891 69.3125 81.8438 69 83.6797ZM84.4297 79.6172L84.3906 81.1016C84.1172 81.0234 83.7266 80.9453 83.3359 80.9453C82.3594 80.9453 81.6562 81.2578 81.1484 81.8828C80.7188 82.4688 80.4453 83.2109 80.4453 84.0703V89.8125H78.8438V82.5859C78.8438 81.5312 78.7656 80.5938 78.6875 79.7344H80.2109L80.3672 81.6094C80.875 80.2422 82.0859 79.5 83.5312 79.5C83.8438 79.5 84.1562 79.5391 84.4297 79.6172ZM86.7734 88.6406L87.3203 87.4688C88.4141 88.3281 89.4688 88.6406 90.875 88.6406C92.3594 88.6406 93.1797 88.0938 93.1797 87.1172C93.1797 86.3359 92.6719 85.9062 91.4609 85.5938L89.7422 85.2031C88.0625 84.8125 87.125 83.8359 87.125 82.5078C87.125 80.75 88.6484 79.5 90.9922 79.5C92.3984 79.5 93.6875 79.9688 94.5469 80.8281L94 82C93.0625 81.2188 92.0469 80.8281 90.9922 80.8281C89.5469 80.8281 88.7266 81.4141 88.7266 82.3906C88.7266 83.2109 89.1953 83.6797 90.2891 83.9141L91.9688 84.3438C93.8438 84.8125 94.7422 85.6719 94.7422 87.0781C94.7422 88.8359 93.2188 89.9688 90.7969 89.9688C89.0781 89.9688 87.75 89.5 86.7734 88.6406ZM96.6562 84.7344C96.6562 81.5703 98.5312 79.5 101.383 79.5C104.273 79.5 106.148 81.5703 106.148 84.7344C106.148 87.8984 104.273 89.9688 101.383 89.9688C98.5312 89.9688 96.6562 87.8984 96.6562 84.7344ZM104.508 84.7344C104.508 82.2734 103.336 80.8672 101.383 80.8672C99.4297 80.8672 98.2969 82.2734 98.2969 84.7344C98.2969 87.2734 99.3906 88.6016 101.383 88.6016C103.414 88.6016 104.508 87.2734 104.508 84.7344ZM117.32 83.4844V89.8125H115.719V83.5625C115.719 81.7266 114.977 80.8672 113.375 80.8672C111.539 80.8672 110.289 82.1172 110.289 84.0703V89.8125H108.688V82.5859C108.688 81.5312 108.609 80.5938 108.531 79.7344H110.055L110.211 81.5703C110.836 80.2422 112.125 79.5 113.688 79.5C116.109 79.5 117.32 80.8281 117.32 83.4844ZM127.555 81.4922V79.7344H129.156V89.8125H127.555V87.9766C126.969 89.2656 125.719 89.9688 124.156 89.9688C121.461 89.9688 119.703 87.8984 119.703 84.7734C119.703 81.6484 121.5 79.5 124.156 79.5C125.719 79.5 126.93 80.2422 127.555 81.4922ZM127.555 84.7344C127.555 82.2344 126.461 80.8672 124.469 80.8672C122.477 80.8672 121.344 82.3125 121.344 84.7734C121.344 87.2344 122.477 88.6016 124.469 88.6016C126.461 88.6016 127.555 87.1953 127.555 84.7344ZM133.297 75.0859V89.8125H131.695V75.0859H133.297ZM158.727 83.4844V89.8125H157.125V83.5625C157.125 81.6875 156.5 80.8672 155.016 80.8672C153.336 80.8672 152.32 82.0781 152.32 84.0703V89.8125H150.68V83.5625C150.68 81.7266 150.055 80.8672 148.609 80.8672C146.891 80.8672 145.836 82.0781 145.836 84.0703V89.8125H144.234V82.5859C144.234 81.5312 144.156 80.5938 144.078 79.7344H145.602L145.758 81.5312C146.344 80.2422 147.477 79.5 148.961 79.5C150.562 79.5 151.539 80.125 152.047 81.4531C152.633 80.2812 153.883 79.5 155.406 79.5C157.594 79.5 158.727 80.8281 158.727 83.4844ZM161.109 84.7344C161.109 81.5703 162.984 79.5 165.836 79.5C168.727 79.5 170.602 81.5703 170.602 84.7344C170.602 87.8984 168.727 89.9688 165.836 89.9688C162.984 89.9688 161.109 87.8984 161.109 84.7344ZM168.961 84.7344C168.961 82.2734 167.789 80.8672 165.836 80.8672C163.883 80.8672 162.75 82.2734 162.75 84.7344C162.75 87.2734 163.844 88.6016 165.836 88.6016C167.867 88.6016 168.961 87.2734 168.961 84.7344ZM178.18 79.7344V81.0234H175.289V86.5312C175.289 88.0156 175.953 88.5625 177.047 88.5625C177.438 88.5625 177.789 88.4844 178.141 88.3672V89.7344C177.711 89.8906 177.242 89.9688 176.734 89.9688C174.82 89.9688 173.688 88.8359 173.688 86.7656V81.0234H171.734V79.7344H173.688V77.1562L175.289 76.6094V79.7344H178.18ZM181.695 77.3125H179.742V75.4766H181.695V77.3125ZM181.5 79.7344V89.8125H179.898V79.7344H181.5ZM185.055 79.7734L188.453 88.0547L191.891 79.7734H193.492L189.156 89.8125H187.633L183.336 79.7734H185.055ZM202.555 81.4922V79.7344H204.156V89.8125H202.555V87.9766C201.969 89.2656 200.719 89.9688 199.156 89.9688C196.461 89.9688 194.703 87.8984 194.703 84.7734C194.703 81.6484 196.5 79.5 199.156 79.5C200.719 79.5 201.93 80.2422 202.555 81.4922ZM202.555 84.7344C202.555 82.2344 201.461 80.8672 199.469 80.8672C197.477 80.8672 196.344 82.3125 196.344 84.7734C196.344 87.2344 197.477 88.6016 199.469 88.6016C201.461 88.6016 202.555 87.1953 202.555 84.7344ZM211.734 79.7344V81.0234H208.844V86.5312C208.844 88.0156 209.508 88.5625 210.602 88.5625C210.992 88.5625 211.344 88.4844 211.695 88.3672V89.7344C211.266 89.8906 210.797 89.9688 210.289 89.9688C208.375 89.9688 207.242 88.8359 207.242 86.7656V81.0234H205.289V79.7344H207.242V77.1562L208.844 76.6094V79.7344H211.734ZM212.867 84.7344C212.867 81.5703 214.742 79.5 217.594 79.5C220.484 79.5 222.359 81.5703 222.359 84.7344C222.359 87.8984 220.484 89.9688 217.594 89.9688C214.742 89.9688 212.867 87.8984 212.867 84.7344ZM220.719 84.7344C220.719 82.2734 219.547 80.8672 217.594 80.8672C215.641 80.8672 214.508 82.2734 214.508 84.7344C214.508 87.2734 215.602 88.6016 217.594 88.6016C219.625 88.6016 220.719 87.2734 220.719 84.7344ZM230.484 79.6172L230.445 81.1016C230.172 81.0234 229.781 80.9453 229.391 80.9453C228.414 80.9453 227.711 81.2578 227.203 81.8828C226.773 82.4688 226.5 83.2109 226.5 84.0703V89.8125H224.898V82.5859C224.898 81.5312 224.82 80.5938 224.742 79.7344H226.266L226.422 81.6094C226.93 80.2422 228.141 79.5 229.586 79.5C229.898 79.5 230.211 79.5391 230.484 79.6172Z" fill="#F3C05F"/>
</svg>
