<svg width="52" height="52" viewBox="0 0 52 52" fill="none" xmlns="http://www.w3.org/2000/svg">
<path d="M25.76 51.52C39.9869 51.52 51.52 39.9869 51.52 25.76C51.52 11.5331 39.9869 0 25.76 0C11.5331 0 0 11.5331 0 25.76C0 39.9869 11.5331 51.52 25.76 51.52Z" fill="#FFDD67"/>
<path opacity="0.8" d="M41.9029 36.0641C45.6967 36.0641 48.7722 32.9886 48.7722 29.1948C48.7722 25.4009 45.6967 22.3254 41.9029 22.3254C38.1091 22.3254 35.0336 25.4009 35.0336 29.1948C35.0336 32.9886 38.1091 36.0641 41.9029 36.0641Z" fill="#FF717F"/>
<path opacity="0.8" d="M9.61701 36.0641C13.4108 36.0641 16.4863 32.9886 16.4863 29.1948C16.4863 25.4009 13.4108 22.3254 9.61701 22.3254C5.82319 22.3254 2.74768 25.4009 2.74768 29.1948C2.74768 32.9886 5.82319 36.0641 9.61701 36.0641Z" fill="#FF717F"/>
<path d="M36.5792 32.8868C29.624 37.7812 21.896 37.6953 14.9408 32.8868C14.0821 32.2857 13.3952 33.3161 13.9104 34.2607C16.057 37.6953 20.2645 40.8724 25.76 40.8724C31.2554 40.8724 35.4629 37.7812 37.6096 34.2607C38.1248 33.3161 37.4378 32.2857 36.5792 32.8868Z" fill="#664E27"/>
<path d="M22.7546 21.3808C21.1231 17.0016 18.7188 14.769 16.3146 14.769C13.9103 14.769 11.506 17.0016 9.87457 21.3808C9.70284 21.8101 10.5615 22.5829 10.9908 22.1536C12.5364 20.5221 14.4255 19.8352 16.3146 19.8352C18.2036 19.8352 20.0927 20.5221 21.6383 22.1536C22.1535 22.5829 22.9263 21.8101 22.7546 21.3808Z" fill="#664E27"/>
<path d="M41.5594 21.3808C39.9279 17.0016 37.5236 14.769 35.1194 14.769C32.7151 14.769 30.3108 17.0016 28.6794 21.3808C28.5076 21.8101 29.3663 22.5829 29.7956 22.1536C31.3412 20.5221 33.2303 19.8352 35.1194 19.8352C37.0084 19.8352 38.8975 20.5221 40.4431 22.1536C40.8724 22.5829 41.7311 21.8101 41.5594 21.3808Z" fill="#664E27"/>
</svg>
