<svg width="51" height="67" viewBox="0 0 51 67" fill="none" xmlns="http://www.w3.org/2000/svg">
<path d="M25.5002 67C39.4993 67 51 56.0693 51 42.0393C51 38.595 50.8223 34.9028 48.8847 29.1644C46.947 23.4262 46.5567 22.6855 44.5078 19.1417C43.6325 26.3735 38.949 29.3875 37.7591 30.2884C37.7591 29.3512 34.9259 18.9876 30.6301 12.7868C26.4131 6.7 20.6779 2.70667 17.3151 0C17.3151 5.14186 15.8473 12.7868 13.7453 16.682C11.6432 20.5772 11.2485 20.7191 8.6228 23.6178C5.9973 26.5166 4.79216 27.4119 2.5966 30.929C0.401135 34.4464 0 39.131 0 42.5753C0 56.6053 11.5011 67 25.5002 67Z" fill="#FDD67C"/>
</svg>
